<svg width="20" height="14.999999999999998" xmlns="http://www.w3.org/2000/svg">
 <!-- Created with SVG Editor - http://github.com/mzalive/SVG Editor/ -->
 <g>
  <title>background</title>
  <rect fill="none" id="canvas_background" height="17" width="22" y="-1" x="-1"/>
 </g>
 <g>
  <title>Layer 1</title>
  <path stroke="#000" id="svg_10" d="m16.472598,6.095085c-0.061124,-2.743664 -2.170213,-4.947683 -4.763691,-4.949081c-1.733805,0.001398 -3.24809,0.98702 -4.080159,2.459162c-0.391059,-0.22858 -0.84127,-0.362094 -1.321057,-0.362094c-1.497855,0.001398 -2.716382,1.263134 -2.770933,2.842226c-1.57278,0.549432 -2.711124,2.114544 -2.712438,3.974643c0,2.315163 1.766009,4.194136 3.943452,4.194136l0,-0.001398l10.433718,0c2.176786,0 3.943452,-1.878973 3.943452,-4.194136c-0.002629,-1.844022 -1.121255,-3.402143 -2.672346,-3.963459zm-1.272421,6.760948l-10.433061,0c-1.451848,-0.004194 -2.626997,-1.253348 -2.629626,-2.796091c-0.001314,-1.386162 0.953001,-2.529763 2.201761,-2.749256c0.174169,-0.030058 0.329936,-0.132814 0.431808,-0.289395c0.101873,-0.155183 0.139335,-0.347414 0.10713,-0.532655c-0.018403,-0.104154 -0.029576,-0.201319 -0.029576,-0.296386c0.002629,-0.856303 0.653956,-1.549733 1.459077,-1.551131c0.425236,0 0.799864,0.194328 1.073276,0.510986c0.153137,0.179649 0.385801,0.262134 0.609263,0.216697c0.224777,-0.046135 0.411434,-0.215299 0.491617,-0.441083c0.492274,-1.392453 1.749578,-2.385065 3.227716,-2.383667c1.904688,0.002796 3.446577,1.643402 3.451178,3.669869c0,0.111844 -0.005915,0.227182 -0.017088,0.346715c-0.032862,0.362094 0.200459,0.687838 0.534995,0.754245c1.221813,0.241163 2.151153,1.374279 2.149839,2.742266c-0.003286,1.545539 -1.176463,2.794693 -2.628311,2.798887zm-7.84287,4.980537c-0.515278,-0.001398 -0.931969,-0.444578 -0.931969,-0.989816c0,-0.548733 0.416691,-0.989816 0.931969,-0.991214c0.512649,0.001398 0.928683,0.442481 0.930655,0.991214c-0.001314,0.545238 -0.417349,0.988418 -0.930655,0.989816zm4.928658,0c-0.514621,-0.001398 -0.931969,-0.444578 -0.931969,-0.989816c0,-0.548733 0.417349,-0.989816 0.931969,-0.991214c0.511992,0.001398 0.92934,0.442481 0.92934,0.991214c0.000657,0.545238 -0.415377,0.988418 -0.92934,0.989816zm-7.557627,3.538453c-0.514621,-0.001398 -0.931312,-0.445277 -0.931312,-0.991214s0.416691,-0.988418 0.931312,-0.989816c0.512649,0.001398 0.929998,0.443879 0.929998,0.989816c-0.000657,0.546636 -0.416691,0.990515 -0.929998,0.991214zm4.928001,0c-0.513963,-0.001398 -0.931312,-0.445277 -0.931312,-0.991214s0.416691,-0.988418 0.931312,-0.989816c0.512649,0.001398 0.928683,0.443879 0.929998,0.989816c-0.000657,0.546636 -0.415377,0.990515 -0.929998,0.991214zm4.928658,0c-0.513963,-0.001398 -0.930655,-0.44318 -0.930655,-0.989816c0,-0.548733 0.416691,-0.991214 0.930655,-0.992612c0.513306,0.001398 0.92934,0.443879 0.931969,0.992612c-0.001972,0.547335 -0.418006,0.989117 -0.931969,0.989816z" fill-opacity="null" stroke-opacity="null" stroke-width="1.5" fill="#fff"/>
 </g>
</svg>