<svg width="15" height="15" xmlns="http://www.w3.org/2000/svg">
 <!-- Created with SVG Editor - http://github.com/mzalive/SVG Editor/ -->

 <g>
  <title>background</title>
  <rect fill="none" id="canvas_background" height="17" width="17" y="-1" x="-1"/>
 </g>
 <g>
  <title>Layer 1</title>
  <path stroke="#000" id="svg_12" d="m5.274788,14.373584c-2.674408,-0.732493 -4.591334,-3.059974 -4.155694,-5.045737c0.274702,-1.252174 6.070217,-8.853746 6.576349,-8.625741c0.165195,0.074417 1.635222,1.846663 3.266726,3.938324c2.613499,3.35062 2.96637,3.975407 2.96637,5.252195c0,2.587997 -2.841573,4.707859 -6.253469,4.665199c-0.99564,-0.012451 -2.075767,-0.095358 -2.400283,-0.184239l0,0zm2.679454,-1.301667c0.088524,-0.335054 -0.118264,-0.498458 -0.630804,-0.498458c-1.168132,0 -2.78852,-1.078384 -3.15054,-2.096713c-0.386176,-1.08628 -1.410102,-1.215471 -1.561342,-0.196997c-0.291383,1.962235 4.851791,4.650134 5.342685,2.792168l0.000001,0z" fill-opacity="null" stroke-opacity="null" stroke-width="0.5" fill="#fff"/>
 </g>
</svg>