<svg width="150" height="125" xmlns="http://www.w3.org/2000/svg">
 <!-- Created with SVG Editor - http://github.com/mzalive/SVG Editor/ -->

 <g>
  <title>background</title>
  <rect fill="none" id="canvas_background" height="127" width="152" y="-1" x="-1"/>
 </g>
 <g>
  <title>Layer 1</title>
  <path stroke="#000" id="svg_13" d="m126.549303,47.611254c-0.484555,-25.907447 -17.386031,-46.724517 -38.174478,-46.737722c-13.894077,0.006602 -26.029011,9.322456 -32.696904,23.220309c-3.133804,-2.158954 -6.74163,-3.413392 -10.586465,-3.413392c-12.003261,0.013205 -21.76809,11.923764 -22.205243,26.844975c-12.603687,5.189412 -21.725955,19.971975 -21.736489,37.54071c0,21.866836 14.152155,39.613834 31.601389,39.613834l0,-0.013205l83.606741,0c17.443967,0 31.601389,-17.746998 31.601389,-39.613834c-0.010534,-17.41028 -8.974794,-32.133422 -21.409941,-37.441676zm-10.191448,63.864103l-83.612008,0c-11.634578,-0.039614 -21.051792,-11.831332 -21.072859,-26.415825c-0.010534,-13.08577 7.637002,-23.887142 17.644109,-25.953664c1.395728,-0.283899 2.643983,-1.26104 3.460352,-2.733355c0.816369,-1.472314 1.116582,-3.281346 0.858504,-5.037559c-0.147473,-0.977141 -0.23701,-1.901464 -0.23701,-2.799378c0.021068,-8.087824 5.240564,-14.630709 11.692514,-14.643914c3.407683,0 6.409815,1.835441 8.600845,4.826285c1.227187,1.696793 3.091669,2.475865 4.882415,2.040112c1.801279,-0.435752 3.297078,-2.026908 3.93964,-4.159453c3.944907,-13.151793 14.020483,-22.527067 25.865737,-22.513862c15.268738,0.026409 27.619614,15.515418 27.656482,34.655503c0,1.062971 -0.047402,2.152352 -0.142206,3.281346c-0.258078,3.413392 1.606404,6.496669 4.292522,7.123888c9.796431,2.271193 17.243825,12.980133 17.228024,25.900845c-0.021068,14.591096 -9.422481,26.389416 -21.057059,26.42903zm-75.880201,64.062172c0,-7.361571 0.110605,-35.817508 0.110605,-35.863724c0.010534,-2.700343 -1.300924,-5.143196 -3.307612,-6.153349c-2.001421,-1.00355 -4.292522,-0.389536 -5.788321,1.584553c-0.031601,0.052818 -5.461773,7.249332 -10.960415,15.4626c-2.754588,4.139646 -5.519709,8.497167 -7.705472,12.517972c-2.101492,4.278294 -3.965974,7.038058 -4.271454,12.445346c0.015801,11.05226 7.141914,20.004986 15.969235,20.024793c8.806254,-0.026409 15.953434,-8.979136 15.953434,-20.018191zm-21.373073,0.297104c0.479288,-2.304205 5.693517,-11.349363 10.496928,-18.248773c0.131672,-0.191467 0.268612,-0.402741 0.400284,-0.587605c-0.026334,7.420992 -0.052669,15.145689 -0.052669,18.539274c0,3.743507 -2.42804,6.78717 -5.419638,6.800375c-2.917862,-0.013205 -5.287966,-2.898412 -5.424905,-6.503271zm60.327051,-0.297104c0,-7.361571 0.110605,-35.810906 0.110605,-35.85052c0.010534,-2.706945 -1.300924,-5.143196 -3.307612,-6.166554c-2.006688,-1.00355 -4.287255,-0.382934 -5.793588,1.597758c-0.031601,0.052818 -5.45124,7.222922 -10.955148,15.4626c-2.749321,4.113236 -5.514442,8.483963 -7.705472,12.504767c-2.101492,4.284896 -3.965974,7.051262 -4.260921,12.465153c0,11.039055 7.13138,19.991782 15.953434,19.991782c8.811521,-0.006602 15.958701,-8.965931 15.958701,-20.004986zm-21.383606,0.310308c0.484555,-2.304205 5.693517,-11.355966 10.496928,-18.255375c0.131672,-0.198069 0.263345,-0.396138 0.395017,-0.587605c-0.026334,7.414389 -0.057936,15.145689 -0.057936,18.532672c-0.010534,3.75011 -2.42804,6.780568 -5.414371,6.793773c-2.917862,-0.013205 -5.277432,-2.89181 -5.419638,-6.483464zm57.440791,-42.333984c-2.001421,-1.010153 -4.297789,-0.396138 -5.788321,1.584553c-0.047402,0.052818 -5.461773,7.242729 -10.955148,15.4626c-2.754588,4.126441 -5.524976,8.483963 -7.700205,12.517972c-2.117293,4.284896 -3.971241,7.04466 -4.276721,12.451949c0,11.039055 7.13138,19.998384 15.958701,19.998384c8.811521,0 15.942901,-8.959329 15.942901,-19.998384c0,-7.361571 0.115872,-35.817508 0.115872,-35.857122c0.015801,-2.706945 -1.295657,-5.149798 -3.297078,-6.159951zm-7.331522,42.017073c-0.021068,3.75011 -2.438574,6.780568 -5.430172,6.793773c-2.912595,-0.013205 -5.277432,-2.89181 -5.414371,-6.483464c0.484555,-2.304205 5.693517,-11.355966 10.496928,-18.255375c0.131672,-0.184865 0.263345,-0.389536 0.38975,-0.581003c-0.021068,7.414389 -0.042135,15.132485 -0.042135,18.52607z" opacity="0.5" fill-opacity="null" stroke-opacity="null" stroke-width="0.5" fill="#fff"/>
  <path id="svg_14" d="m459.52195,388.22548c-0.00046,-0.01962 -0.016505,-0.035385 -0.03624,-0.035395c-0.01319,0.000005 -0.02471,0.00706 -0.03104,0.017585c-0.002975,-0.001635 -0.0064,-0.002585 -0.01005,-0.002585c-0.011395,0.00001 -0.020665,0.00903 -0.02108,0.02033c-0.011965,0.00393 -0.020625,0.015125 -0.020635,0.02843c0,0.01656 0.013435,0.03 0.03,0.03l0,-0.00001l0.07937,0c0.01656,0 0.03,-0.01344 0.03,-0.03c-0.00001,-0.013185 -0.00852,-0.024335 -0.020325,-0.028355zm-0.009675,0.048365l-0.079375,0c-0.011045,-0.00003 -0.019985,-0.00896 -0.020005,-0.020005c-0.00001,-0.00991 0.00725,-0.01809 0.01675,-0.019655c0.001325,-0.000215 0.00251,-0.000955 0.003285,-0.00207c0.000775,-0.001115 0.00106,-0.002485 0.000815,-0.003815c-0.00014,-0.00074 -0.000225,-0.00144 -0.000225,-0.00212c0.00002,-0.006125 0.004975,-0.01108 0.0111,-0.01109c0.003235,0 0.006085,0.00139 0.008165,0.003655c0.001165,0.001285 0.002935,0.001875 0.004635,0.001545c0.00171,-0.00033 0.00313,-0.001535 0.00374,-0.00315c0.003745,-0.00996 0.01331,-0.01706 0.024555,-0.01705c0.014495,0.00002 0.02622,0.01175 0.026255,0.026245c0,0.000805 -0.000045,0.00163 -0.000135,0.002485c-0.000245,0.002585 0.001525,0.00492 0.004075,0.005395c0.0093,0.00172 0.01637,0.00983 0.016355,0.019615c-0.00002,0.01105 -0.008945,0.019985 -0.01999,0.020015zm-0.072035,0.048515c0,-0.005575 0.000105,-0.027125 0.000105,-0.02716c0.00001,-0.002045 -0.001235,-0.003895 -0.00314,-0.00466c-0.0019,-0.00076 -0.004075,-0.000295 -0.005495,0.0012c-0.00003,0.00004 -0.005185,0.00549 -0.010405,0.01171c-0.002615,0.003135 -0.00524,0.006435 -0.007315,0.00948c-0.001995,0.00324 -0.003765,0.00533 -0.004055,0.009425c0.000015,0.00837 0.00678,0.01515 0.01516,0.015165c0.00836,-0.00002 0.015145,-0.0068 0.015145,-0.01516zm-0.02029,0.000225c0.000455,-0.001745 0.005405,-0.008595 0.009965,-0.01382c0.000125,-0.000145 0.000255,-0.000305 0.00038,-0.000445c-0.000025,0.00562 -0.00005,0.01147 -0.00005,0.01404c0,0.002835 -0.002305,0.00514 -0.005145,0.00515c-0.00277,-0.00001 -0.00502,-0.002195 -0.00515,-0.004925zm0.05727,-0.000225c0,-0.005575 0.000105,-0.02712 0.000105,-0.02715c0.00001,-0.00205 -0.001235,-0.003895 -0.00314,-0.00467c-0.001905,-0.00076 -0.00407,-0.00029 -0.0055,0.00121c-0.00003,0.00004 -0.005175,0.00547 -0.0104,0.01171c-0.00261,0.003115 -0.005235,0.006425 -0.007315,0.00947c-0.001995,0.003245 -0.003765,0.00534 -0.004045,0.00944c0,0.00836 0.00677,0.01514 0.015145,0.01514c0.008365,-0.000005 0.01515,-0.00679 0.01515,-0.01515zm-0.0203,0.000235c0.00046,-0.001745 0.005405,-0.0086 0.009965,-0.013825c0.000125,-0.00015 0.00025,-0.0003 0.000375,-0.000445c-0.000025,0.005615 -0.000055,0.01147 -0.000055,0.014035c-0.00001,0.00284 -0.002305,0.005135 -0.00514,0.005145c-0.00277,-0.00001 -0.00501,-0.00219 -0.005145,-0.00491zm0.05453,-0.03206c-0.0019,-0.000765 -0.00408,-0.0003 -0.005495,0.0012c-0.000045,0.00004 -0.005185,0.005485 -0.0104,0.01171c-0.002615,0.003125 -0.005245,0.006425 -0.00731,0.00948c-0.00201,0.003245 -0.00377,0.005335 -0.00406,0.00943c0,0.00836 0.00677,0.015145 0.01515,0.015145c0.008365,0 0.015135,-0.006785 0.015135,-0.015145c0,-0.005575 0.00011,-0.027125 0.00011,-0.027155c0.000015,-0.00205 -0.00123,-0.0039 -0.00313,-0.004665zm-0.00696,0.03182c-0.00002,0.00284 -0.002315,0.005135 -0.005155,0.005145c-0.002765,-0.00001 -0.00501,-0.00219 -0.00514,-0.00491c0.00046,-0.001745 0.005405,-0.0086 0.009965,-0.013825c0.000125,-0.00014 0.00025,-0.000295 0.00037,-0.00044c-0.00002,0.005615 -0.00004,0.01146 -0.00004,0.01403z" fill-opacity="null" stroke-opacity="null" stroke-width="0.5" stroke="#000" fill="#fff"/>
 </g>
</svg>