<svg width="20" height="15" xmlns="http://www.w3.org/2000/svg">
 <!-- Created with SVG Editor - http://github.com/mzalive/SVG Editor/ -->

 <g>
  <title>background</title>
  <rect fill="none" id="canvas_background" height="17" width="22" y="-1" x="-1"/>
 </g>
 <g>
  <title>Layer 1</title>
  <path stroke="#000" id="svg_6" d="m-21.501912,4.767009l0,5.136944l8.283062,0l12.399717,3.59508l0.007371,-12.327105l-12.401559,3.59508l-8.288591,0zm25.444388,-0.590723c-0.724192,-0.253074 -1.886953,-0.253074 -2.60746,0.001301c-0.718664,0.254375 -0.718664,0.666189 0.003685,0.921215l0,-0.001301c1.590274,0.562097 2.570606,1.333029 2.570606,2.189837c0,0.856157 -0.978489,1.624487 -2.56692,2.186584c-0.726035,0.253074 -0.726035,0.664888 -0.003685,0.920564c0.359332,0.126862 0.83107,0.190619 1.302809,0.190619c0.473581,0 0.945319,-0.063756 1.304651,-0.190619c2.251814,-0.793702 3.648601,-1.896428 3.646759,-3.107149c0.001843,-1.213323 -1.400473,-2.31735 -3.650444,-3.111052zm4.229061,-1.49242c-0.724192,-0.254375 -1.886953,-0.254375 -2.603775,0c-0.722349,0.254375 -0.722349,0.66684 0,0.919914c2.671956,0.943985 4.319354,2.242534 4.319354,3.682908c0,1.439073 -1.647399,2.736971 -4.315669,3.681607c-0.722349,0.253724 -0.722349,0.665539 0,0.919914c0.359332,0.126862 0.83107,0.190619 1.304651,0.190619c0.471738,0 0.943477,-0.063756 1.302809,-0.190619c3.331652,-1.176891 5.39735,-2.807233 5.393665,-4.601521c0.001843,-1.795588 -2.063855,-3.427232 -5.401036,-4.602822zm4.015304,-1.417604c-0.724192,-0.254375 -1.888796,-0.253074 -2.605617,0.001301c-0.720507,0.253074 -0.720507,0.665539 0.003685,0.919263l-0.003685,0c3.702041,1.307006 5.985181,3.105197 5.985181,5.099862c0,1.992713 -2.28314,3.791554 -5.981495,5.099211c-0.720507,0.253724 -0.720507,0.665539 0.003685,0.920564c0.357489,0.126212 0.829228,0.189317 1.300966,0.189317s0.945319,-0.063756 1.304651,-0.190619c4.354366,-1.539262 7.059491,-3.671198 7.055805,-6.018474c0.003685,-2.349228 -2.701439,-4.481815 -7.063176,-6.020426z" fill-opacity="null" stroke-opacity="null" stroke-width="0.5" fill="#fff"/>
 </g>
</svg>